<mxfile host="app.diagrams.net" modified="2021-06-02T10:05:17.191Z" agent="5.0 (Macintosh; Intel Mac OS X 10_14_6) AppleWebKit/537.36 (KHTML, like Gecko) Chrome/90.0.4430.212 Safari/537.36" etag="6hmFvs8o1xX6c42KpmT5" version="14.7.3" type="github">
  <diagram id="NSqYkseTwNGMMg4fa7Z-" name="Page-1">
    <mxGraphModel dx="926" dy="492" grid="1" gridSize="10" guides="1" tooltips="1" connect="1" arrows="1" fold="1" page="1" pageScale="1" pageWidth="3300" pageHeight="4681" math="0" shadow="0">
      <root>
        <mxCell id="0" />
        <mxCell id="1" parent="0" />
        <mxCell id="TR1TFNIkeVoY3saFG_14-1" value="&lt;font style=&quot;font-size: 21px&quot;&gt;营收&lt;/font&gt;" style="rounded=1;whiteSpace=wrap;html=1;fillColor=#d5e8d4;strokeColor=#82b366;" vertex="1" parent="1">
          <mxGeometry x="80" y="40" width="120" height="40" as="geometry" />
        </mxCell>
      </root>
    </mxGraphModel>
  </diagram>
</mxfile>
